 <svg  version="1.0" xmlns="http://www.w3.org/2000/svg"  width="282.000000pt" height="240.000000pt" viewBox="0 0 282.000000 240.000000"  preserveAspectRatio="xMidYMid meet">  <g transform="translate(0.000000,240.000000) scale(0.100000,-0.100000)" fill="#f7f7f7" stroke="none"> <path d="M1839 2276 c-2 -2 -148 -38 -324 -81 -176 -42 -339 -84 -363 -92 -24 -8 -58 -31 -75 -51 -91 -101 -102 -109 -171 -130 -86 -26 -140 -63 -173 -119 -36 -62 -34 -134 7 -308 179 -762 172 -742 256 -795 85 -53 108 -52 474 35 255 60 352 83 504 118 l98 23 32 111 c30 102 31 116 20 160 -12 51 -18 76 -114 488 -34 143 -69 296 -80 340 -10 44 -31 131 -45 193 -24 101 -32 121 -46 108z m1 -64 c0 -10 20 -104 70 -322 23 -102 46 -201 50 -220 4 -19 29 -129 55 -245 26 -115 51 -228 55 -250 5 -23 10 -45 11 -50 4 -16 -24 -135 -32 -135 -4 0 -10 15 -14 33 -3 17 -15 70 -26 117 -18 78 -32 139 -104 445 -14 61 -35 151 -47 200 -11 50 -22 92 -24 94 -1 1 -31 -4 -66 -12 -119 -29 -273 -66 -388 -93 -63 -14 -188 -44 -277 -65 -176 -42 -225 -47 -278 -25 -29 13 -35 20 -35 46 0 45 15 67 68 101 68 43 131 41 183 -6 27 -24 49 -35 72 -35 53 -1 705 163 712 179 3 8 4 16 2 18 -2 2 -105 -20 -228 -48 -123 -28 -260 -60 -303 -70 -83 -18 -96 -18 -96 7 0 20 26 29 160 59 63 14 160 37 215 50 55 13 133 32 173 41 63 15 95 34 81 49 -2 2 -40 -5 -84 -16 -44 -11 -98 -23 -120 -28 -22 -5 -123 -28 -224 -51 -152 -35 -185 -40 -192 -29 -19 31 -7 34 406 129 210 48 215 49 215 65 0 8 -4 15 -9 15 -9 0 -360 -79 -488 -110 -96 -24 -123 -25 -123 -6 0 26 29 38 172 71 255 58 413 97 417 101 7 7 41 4 41 -4z m-654 -177 c6 -20 7 -38 3 -41 -5 -3 -9 -24 -9 -47 1 -90 -4 -109 -29 -119 -30 -11 -50 -4 -94 30 -19 15 -42 32 -51 37 -14 9 -6 21 56 86 64 67 85 85 108 88 3 1 10 -15 16 -34z m638 -397 c20 -90 50 -217 66 -283 16 -66 38 -163 50 -215 13 -52 29 -119 36 -149 8 -29 12 -57 9 -61 -3 -4 -58 -20 -122 -35 -114 -26 -256 -59 -473 -111 -58 -14 -132 -32 -166 -40 -103 -24 -165 -14 -214 37 -43 45 -57 91 -140 444 -12 50 -27 117 -35 150 -19 77 -55 243 -55 250 0 3 14 -2 32 -11 35 -18 149 -16 223 5 36 10 208 51 465 112 52 12 136 32 185 44 50 13 92 24 95 24 3 1 23 -72 44 -161z m-1040 1 c-29 -12 -31 -11 -38 16 -11 42 4 52 32 20 23 -27 23 -29 6 -36z m1261 -670 c11 -16 -4 -59 -20 -59 -10 0 -15 11 -15 35 0 35 20 49 35 24z"/> <path d="M214 457 c-2 -7 -3 -80 -2 -162 l3 -150 25 0 c24 0 25 3 28 61 3 60 4 62 33 66 29 5 32 1 65 -64 25 -50 40 -68 54 -68 33 0 33 23 1 84 l-31 57 27 23 c53 46 27 136 -44 155 -55 15 -152 14 -159 -2z m160 -69 c18 -29 -5 -52 -58 -58 l-46 -6 0 46 0 46 46 -6 c29 -3 51 -12 58 -22z"/> <path d="M952 461 c-21 -13 -10 -46 16 -49 27 -4 40 22 22 43 -14 17 -20 18 -38 6z"/> <path d="M1504 457 c-2 -7 -3 -80 -2 -162 l3 -150 25 0 c24 0 25 3 28 63 l3 62 32 0 c30 0 35 -5 65 -65 24 -48 37 -65 52 -65 33 0 33 25 0 84 l-31 56 27 23 c48 42 31 127 -31 153 -44 18 -164 19 -171 1z m160 -69 c18 -29 -5 -52 -58 -58 l-46 -6 0 44 0 43 46 -3 c31 -2 51 -9 58 -20z"/> <path d="M2287 463 c-4 -3 -7 -75 -7 -160 0 -133 2 -154 16 -160 34 -13 44 24 44 167 0 92 -4 140 -12 148 -13 13 -31 16 -41 5z"/> <path d="M947 363 c-4 -3 -7 -50 -7 -103 0 -76 3 -100 15 -110 27 -22 40 4 41 83 2 102 -5 137 -25 137 -10 0 -21 -3 -24 -7z"/> <path d="M1053 364 c-10 -4 -13 -47 -13 -165 0 -136 2 -161 16 -166 26 -10 39 15 38 71 l0 54 38 5 c83 11 115 65 81 135 -10 20 -29 42 -43 49 -31 15 -100 24 -117 17z m109 -87 c13 -20 9 -35 -14 -51 -40 -28 -53 -21 -53 30 0 45 0 45 30 40 16 -4 33 -12 37 -19z"/> <path d="M2384 357 c-2 -7 -3 -58 -2 -113 3 -91 5 -99 23 -99 17 0 20 8 23 50 4 76 10 95 32 95 18 0 20 -7 20 -64 0 -43 5 -67 15 -76 25 -21 35 -1 35 70 0 50 4 69 15 73 20 8 24 -1 26 -71 3 -74 11 -92 36 -76 26 17 25 154 -2 183 -20 23 -64 28 -82 10 -8 -8 -13 -8 -17 0 -9 14 -53 14 -61 1 -10 -16 -22 -12 -28 10 -6 23 -25 27 -33 7z"/> <path d="M519 331 c-24 -25 -29 -38 -29 -79 0 -63 25 -98 79 -107 45 -7 111 16 111 39 0 23 -13 26 -55 15 -27 -8 -45 -8 -62 0 -41 19 -25 31 42 31 59 0 67 2 74 22 31 83 -94 144 -160 79z m109 -33 c22 -22 13 -28 -38 -28 -27 0 -50 4 -50 8 0 16 25 32 50 32 14 0 31 -5 38 -12z"/> <path d="M1307 339 c-30 -23 -51 -86 -41 -123 8 -34 45 -66 86 -72 40 -7 108 18 108 40 0 23 -13 26 -55 15 -27 -8 -45 -8 -62 0 -39 18 -26 31 31 31 75 0 86 6 86 45 0 69 -96 110 -153 64z m103 -49 c10 -19 8 -20 -40 -20 -51 0 -60 6 -38 28 19 19 66 15 78 -8z"/> <path d="M1814 337 c-22 -19 -28 -34 -32 -80 -4 -49 -2 -58 21 -81 33 -33 84 -42 130 -22 35 14 48 38 29 50 -5 3 -26 1 -47 -5 -42 -12 -85 0 -85 23 0 10 17 12 64 10 56 -3 66 -1 75 16 16 29 -5 79 -40 97 -41 22 -84 18 -115 -8z m104 -39 c22 -22 13 -28 -38 -28 -48 0 -50 1 -40 20 12 23 59 27 78 8z"/> <path d="M773 338 c-31 -15 -56 -73 -49 -112 12 -62 80 -99 139 -77 56 22 45 70 -12 50 -27 -10 -35 -8 -51 6 -37 34 -12 104 31 91 11 -3 28 -9 39 -12 31 -10 39 25 11 48 -25 20 -74 23 -108 6z"/> <path d="M2061 336 c-79 -44 -63 -174 23 -190 35 -7 86 9 86 27 0 6 11 1 23 -12 21 -19 25 -20 37 -6 10 12 9 24 -9 64 -11 28 -21 56 -21 64 0 23 -58 67 -88 67 -15 -1 -38 -7 -51 -14z m70 -46 c25 -14 25 -62 -1 -85 -18 -17 -21 -17 -45 -1 -43 28 -30 82 23 95 2 1 12 -4 23 -9z"/> </g> </svg> 