<svg version="1.1" id="Layer_1" xmlns="http://www.w3.org/2000/svg" xmlns:xlink="http://www.w3.org/1999/xlink" x="0px" y="0px"
	 width="100%" viewBox="0 0 272 240" enable-background="new 0 0 272 240" xml:space="preserve">
<path fill="#000000" opacity="1.000000" stroke="none" 
	d="
M79.557129,113.268631 
	C76.836388,100.697975 73.296982,88.739052 71.428360,76.401550 
	C69.407669,63.060070 75.676613,52.501766 88.787498,49.042713 
	C96.291832,47.062847 102.164917,43.650463 106.385559,37.086777 
	C109.204880,32.702339 113.641289,30.346924 118.669289,29.132477 
	C140.142166,23.945980 161.625809,18.803240 183.075592,13.522945 
	C186.183289,12.757922 187.575577,13.425256 188.330551,16.666773 
	C196.843704,53.218239 205.389694,89.762642 214.149490,126.255501 
	C215.629654,132.421814 212.561447,137.597855 211.888321,143.263779 
	C210.893768,151.635162 206.172455,154.809143 198.105820,156.521881 
	C172.924988,161.868454 147.919800,168.053345 122.885674,174.075989 
	C105.114616,178.351303 93.038124,171.127060 88.915207,153.452820 
	C85.822388,140.194443 82.724281,126.937309 79.557129,113.268631 
M83.432152,89.297760 
	C82.628212,91.797562 83.565125,94.236023 83.635597,96.700500 
	C83.773483,101.522552 88.753609,104.661308 88.616165,108.876984 
	C88.339401,117.366112 92.291435,124.415756 94.762886,131.962769 
	C95.673065,134.742157 95.864372,138.150986 98.868340,140.208221 
	C101.697151,137.695679 101.105782,134.917328 100.036591,132.271561 
	C98.556580,128.609192 98.922150,125.143791 100.362617,121.602303 
	C101.868355,117.900345 103.737518,118.084625 106.205551,120.734207 
	C107.976265,122.635178 108.686073,125.032013 109.763985,127.272057 
	C111.496338,130.872116 114.573235,132.458801 118.364670,131.866470 
	C122.442360,131.229462 121.989655,127.691109 122.060188,124.733192 
	C122.123688,122.070442 121.948311,119.402328 121.998810,116.738869 
	C122.164352,108.007515 129.246628,100.511330 137.575775,100.187675 
	C147.448120,99.804054 155.257767,106.461250 156.133240,115.614120 
	C157.787796,132.912262 165.839279,142.504944 183.798813,144.788651 
	C186.899155,145.182892 190.195175,145.073212 191.721375,141.963623 
	C193.464264,138.412491 195.070648,134.324905 194.445236,130.469101 
	C191.064178,109.624512 185.985596,89.137245 180.013077,68.898064 
	C179.006927,65.488541 175.584915,62.989239 171.470093,63.785240 
	C165.446381,64.950500 159.514603,66.585266 153.531494,67.967285 
	C135.398575,72.155823 117.258583,76.313728 99.124023,80.495171 
	C93.276009,81.843597 86.287468,81.053040 83.432152,89.297760 
M137.081619,30.764538 
	C132.533493,32.366955 127.096428,31.868225 122.848282,36.168835 
	C126.017281,37.780167 128.236603,36.722618 130.393951,36.234322 
	C146.926422,32.492397 163.439102,28.662922 179.972366,24.924534 
	C181.435608,24.593676 183.527618,23.501678 184.103333,26.001236 
	C184.670517,28.463797 182.738327,28.935465 180.798996,29.360052 
	C175.113678,30.604750 169.457077,31.980051 163.785843,33.289547 
	C151.632828,36.095680 139.464325,38.837013 127.336861,41.749344 
	C125.369247,42.221851 122.445511,42.294193 123.083832,46.524071 
	C143.397797,41.923237 163.469223,37.377335 183.603821,32.817120 
	C184.671509,37.798817 181.341431,37.653763 179.226639,38.155338 
	C161.764084,42.297009 144.266586,46.291351 126.778954,50.327225 
	C124.847794,50.772900 122.880035,51.160908 122.515434,53.897377 
	C124.709953,55.267303 126.757507,54.364880 128.793655,53.899860 
	C145.485062,50.087875 162.174927,46.269096 178.870941,42.477428 
	C180.517654,42.103455 182.826157,40.604725 183.488754,43.265102 
	C184.203583,46.135155 181.447952,46.039543 179.570084,46.513210 
	C176.346786,47.326237 173.149765,48.243397 169.926727,49.057507 
	C152.678146,53.414333 135.429642,57.771599 118.170021,62.084396 
	C113.851051,63.163612 109.665581,63.442009 105.954666,60.104961 
	C98.211281,53.141720 87.202301,54.721100 81.782410,63.468895 
	C79.064445,67.855736 80.310112,71.103355 85.230591,72.641457 
	C89.879936,74.094810 94.494659,73.432556 99.052055,72.367447 
	C126.082138,66.050301 153.110809,59.725487 180.098938,53.232723 
	C183.508926,52.412357 185.357468,52.687725 186.192642,56.470291 
	C189.165604,69.934761 192.273911,83.369995 195.423141,96.794685 
	C198.671890,110.643715 202.028229,124.467506 205.646255,139.593216 
	C207.624146,134.154160 209.239822,130.296417 207.983170,125.485504 
	C205.549179,116.167336 203.799713,106.672157 201.676331,97.270714 
	C196.221436,73.118652 190.667175,48.988884 185.282288,24.821314 
	C184.393219,20.831112 182.653564,19.764465 178.631287,20.779348 
	C165.088699,24.196363 151.466232,27.296772 137.081619,30.764538 
z"/>
<path fill="#000000" opacity="1.000000" stroke="none" 
	d="
M150.664825,205.028809 
	C150.721817,192.611771 149.631577,193.617035 161.801422,193.700607 
	C169.695053,193.754807 173.516647,196.509415 174.863190,202.606277 
	C175.483719,205.415833 175.204590,208.327545 173.167343,210.045776 
	C170.061539,212.665237 170.764572,215.010941 172.383743,217.828598 
	C173.291702,219.408615 174.052734,221.083405 174.757965,222.766602 
	C175.442535,224.400574 175.648026,226.118881 173.761017,227.101318 
	C172.085617,227.973587 170.339355,227.602890 169.339081,226.028503 
	C167.562851,223.232819 165.981094,220.305847 164.449234,217.365433 
	C163.446503,215.440704 162.280045,214.003647 159.850143,214.423233 
	C156.977020,214.919373 157.537109,217.217575 157.421646,219.125473 
	C157.331360,220.617386 157.386963,222.118027 157.300110,223.610275 
	C157.166885,225.899353 156.141418,227.511841 153.634171,227.370331 
	C151.289154,227.237976 150.719421,225.459686 150.706757,223.474625 
	C150.668579,217.491211 150.675308,211.507507 150.664825,205.028809 
M158.502289,207.368378 
	C159.982452,207.462326 161.466049,207.668762 162.942001,207.623947 
	C165.172562,207.556213 167.003952,206.357498 167.207214,204.198334 
	C167.430450,201.826721 165.372726,200.877060 163.322037,200.433899 
	C158.205719,199.328278 156.996796,200.810898 158.502289,207.368378 
z"/>
<path fill="#000000" opacity="1.000000" stroke="none" 
	d="
M45.797382,202.546112 
	C46.504002,205.366791 46.150730,208.132523 44.472111,209.496628 
	C40.218025,212.953659 42.440975,216.124069 44.116554,219.501358 
	C44.560509,220.396179 45.006229,221.290543 45.473213,222.173431 
	C46.408459,223.941635 46.871777,225.822342 44.840160,226.988663 
	C42.755539,228.185440 40.937218,227.274689 39.778477,225.295364 
	C38.350540,222.856232 36.992367,220.371704 35.713146,217.851425 
	C34.584431,215.627670 33.283031,213.765198 30.387894,214.436005 
	C27.481188,215.109512 28.557211,217.551712 28.359404,219.367905 
	C28.161812,221.182129 28.331154,223.049347 28.006838,224.832809 
	C27.717325,226.424911 26.579744,227.449463 24.798597,227.390762 
	C23.017941,227.332062 21.844854,226.275681 21.827446,224.623581 
	C21.729206,215.300171 21.738791,205.975006 21.803665,196.651062 
	C21.815641,194.929855 23.023905,193.852463 24.718044,193.805939 
	C29.694544,193.669250 34.707825,193.124146 39.570831,194.816101 
	C43.100105,196.044022 44.738136,198.801483 45.797382,202.546112 
M37.804867,203.557144 
	C36.721771,199.345673 33.312794,200.396286 30.478184,200.452728 
	C28.436871,200.493393 28.361330,202.213867 28.372650,203.763885 
	C28.384729,205.417557 28.139160,207.395859 30.504095,207.563858 
	C33.428970,207.771637 36.722000,208.447861 37.804867,203.557144 
z"/>
<path fill="#000000" opacity="1.000000" stroke="none" 
	d="
M103.882317,220.007782 
	C103.910072,216.019562 103.849831,212.523712 103.988037,209.035721 
	C104.131752,205.408646 106.120522,203.643204 109.787529,203.713058 
	C113.017418,203.774582 116.138748,204.492676 118.859276,206.100708 
	C122.998741,208.547409 124.440422,212.651703 124.083679,217.219604 
	C123.717346,221.910385 120.308945,224.366196 116.161613,224.967987 
	C111.980324,225.574722 110.823380,227.611465 111.261406,231.339554 
	C111.319046,231.830109 111.292702,232.342102 111.226776,232.833649 
	C110.911583,235.183868 110.593544,237.912903 107.625633,237.983490 
	C104.601128,238.055420 104.044800,235.356583 103.953979,232.975494 
	C103.795593,228.823318 103.891930,224.661423 103.882317,220.007782 
M116.298866,216.824585 
	C117.384033,212.718948 114.870560,212.218201 111.301323,211.951431 
	C111.695061,214.331161 110.322258,216.607849 112.349762,218.261429 
	C113.539253,219.231552 114.849358,218.355713 116.298866,216.824585 
z"/>
<path fill="#000000" opacity="1.000000" stroke="none" 
	d="
M237.923752,218.747772 
	C237.945709,214.963501 237.703003,211.611786 238.076385,208.330154 
	C238.427612,205.243179 239.361816,202.878189 243.609436,205.047134 
	C246.769470,206.660767 250.663712,206.154083 254.198517,205.886948 
	C261.056030,205.368698 263.000214,206.519455 264.008148,213.202988 
	C264.449860,216.132156 264.321289,219.167282 264.241119,222.148605 
	C264.182281,224.336670 263.820038,226.877808 261.045776,226.974564 
	C258.100922,227.077255 258.065430,224.449600 257.800018,222.293579 
	C257.437927,219.352615 258.334381,216.316925 257.136383,213.449493 
	C257.036316,213.210007 256.617828,213.103561 256.294525,212.902481 
	C254.101166,213.481949 254.445679,215.325470 254.389389,216.914490 
	C254.318863,218.905716 254.369827,220.900925 254.328369,222.893600 
	C254.288849,224.793640 254.093994,226.936676 251.659073,226.876511 
	C249.386597,226.820358 248.955582,224.717590 248.842621,222.830032 
	C248.723694,220.842789 248.825455,218.842941 248.729080,216.853531 
	C248.660355,215.434723 249.121811,213.772339 247.353546,212.935776 
	C245.784943,212.891541 245.379456,213.952148 245.262909,215.185638 
	C245.153809,216.340302 245.204880,217.509323 245.118622,218.667053 
	C244.881790,221.845322 245.890945,226.555969 241.539017,226.708557 
	C237.302628,226.857132 238.429260,222.133530 237.923752,218.747772 
z"/>
<path fill="#000000" opacity="1.000000" stroke="none" 
	d="
M141.147217,205.260193 
	C144.531937,206.498093 146.648514,208.403671 147.418518,211.618332 
	C148.461960,215.974594 146.673157,218.446152 142.233521,218.493042 
	C139.780243,218.518967 137.326660,218.275162 134.531540,219.388245 
	C136.998260,221.458801 139.465042,220.880753 141.800201,220.380295 
	C143.818726,219.947678 146.084671,219.161957 146.868149,221.706879 
	C147.699585,224.407623 145.318283,225.391724 143.280075,226.215057 
	C138.332550,228.213623 132.256531,227.218277 129.345581,223.979477 
	C126.379112,220.678864 125.976707,214.640518 128.405579,209.873428 
	C130.583908,205.598053 134.256744,204.177460 141.147217,205.260193 
z"/>
<path fill="#000000" opacity="1.000000" stroke="none" 
	d="
M178.104263,216.931412 
	C179.858948,206.324677 185.898331,202.117538 193.584671,205.715714 
	C196.520096,207.089859 198.456070,209.345901 198.908081,212.493530 
	C199.371811,215.723053 198.112289,218.136887 194.449219,218.321320 
	C191.670273,218.461258 188.878616,218.349060 186.016190,219.113632 
	C188.200027,221.330322 190.832275,220.961365 193.413818,220.376266 
	C195.276855,219.954010 197.316681,219.290451 198.002151,221.694916 
	C198.689896,224.107285 196.715881,225.259079 194.825714,226.086807 
	C188.260345,228.961960 178.412460,226.849380 178.104263,216.931412 
z"/>
<path fill="#000000" opacity="1.000000" stroke="none" 
	d="
M63.628487,220.576721 
	C65.925270,220.006485 68.194031,218.881897 68.985107,221.722977 
	C69.648582,224.105820 67.702522,225.242065 65.804123,226.091614 
	C60.571095,228.433426 54.189129,227.251602 51.200031,223.401367 
	C48.220303,219.563171 48.332382,212.495880 51.437328,208.436768 
	C54.258133,204.749130 59.934769,203.593872 64.532166,205.705994 
	C67.296471,206.975983 68.980812,209.038712 69.637009,212.007355 
	C70.509415,215.954178 69.016281,218.118576 65.004372,218.343719 
	C62.436108,218.487839 59.853176,218.370712 56.210789,218.370712 
	C58.771114,221.545959 61.089813,220.741852 63.628487,220.576721 
z"/>
<path fill="#000000" opacity="1.000000" stroke="none" 
	d="
M213.655212,205.784729 
	C218.283951,206.722183 220.561615,209.493866 221.770660,213.482346 
	C222.637436,216.341690 223.808151,219.107956 224.803909,221.929626 
	C225.262329,223.228622 225.460785,224.572510 224.340576,225.660095 
	C223.232544,226.735840 221.834106,226.773315 220.661682,225.975800 
	C219.231857,225.003174 218.135620,225.053818 216.583664,225.870895 
	C212.135269,228.212860 207.678146,227.719528 204.109818,224.271362 
	C200.565186,220.846039 200.955597,216.272141 202.483185,212.099945 
	C204.244446,207.289505 208.216873,205.437546 213.655212,205.784729 
M207.813187,215.137085 
	C206.953842,217.854080 207.954681,219.742294 210.589798,220.528030 
	C212.580948,221.121765 214.154312,220.207047 215.037979,218.302673 
	C215.965317,216.304169 216.028305,214.256958 214.019058,213.006989 
	C211.747986,211.594177 209.583771,211.967743 207.813187,215.137085 
z"/>
<path fill="#000000" opacity="1.000000" stroke="none" 
	d="
M75.669647,208.678955 
	C79.810974,205.245560 84.068573,204.746277 88.547165,206.784607 
	C90.290337,207.577972 91.663734,209.015167 90.987396,211.162857 
	C90.269188,213.443573 88.406052,213.480988 86.484245,212.866806 
	C84.163887,212.125229 81.902908,211.559097 80.237495,214.062256 
	C79.223740,215.585953 79.105446,217.185440 80.139572,218.748703 
	C81.874863,221.371902 84.373215,221.013870 86.847061,220.274643 
	C88.594147,219.752594 90.272125,219.413437 90.989510,221.539612 
	C91.623306,223.418045 90.384979,224.735855 88.945099,225.696503 
	C85.169235,228.215698 81.276108,227.702255 77.608559,225.595444 
	C73.728363,223.366486 72.451515,219.625168 72.804123,215.354477 
	C72.997070,213.017578 73.816223,210.807327 75.669647,208.678955 
z"/>
<path fill="#000000" opacity="1.000000" stroke="none" 
	d="
M233.413544,226.282379 
	C229.217133,227.945648 228.139618,225.408844 228.066315,222.526337 
	C227.859589,214.398895 227.908447,206.263245 227.973724,198.131775 
	C227.990509,196.040787 228.716644,194.095642 231.256760,193.873932 
	C233.470886,193.680679 234.934891,195.069763 235.019333,197.032745 
	C235.411118,206.141006 235.576050,215.260880 234.768768,224.360596 
	C234.717041,224.943512 234.102631,225.476501 233.413544,226.282379 
z"/>
<path fill="#000000" opacity="1.000000" stroke="none" 
	d="
M99.963150,225.645752 
	C96.887970,228.010727 95.169220,226.582993 94.774330,223.854416 
	C93.972389,218.313416 93.866966,212.699478 94.462334,207.110153 
	C94.677902,205.086334 95.681282,203.689835 97.994179,203.828415 
	C100.079994,203.953369 100.970482,205.487320 100.989449,207.164200 
	C101.057976,213.222305 102.189224,219.343002 99.963150,225.645752 
z"/>
<path fill="#000000" opacity="1.000000" stroke="none" 
	d="
M99.519508,199.776886 
	C97.051407,200.517441 95.529617,199.841705 94.949448,197.677231 
	C94.559830,196.223679 95.170677,195.070923 96.518578,194.368561 
	C97.709518,193.747986 98.815826,194.065552 99.743301,194.884171 
	C101.426613,196.369934 101.540840,197.966522 99.519508,199.776886 
z"/>
</svg>